<svg width="1927" height="2712" viewBox="0 0 1927 2712">
    <g id="SLIDERS--style" stroke="none" stroke-width="1" fill="none" fill-rule="evenodd">
        <g id="netguru-sequence">
            <g id="ground-shadow" transform="matrix(1,0,0,1,6,1601)" fill="#DEDAD9"
               style="opacity: 1; visibility: inherit; transform-origin: 0px 0px;"
               data-svg-origin="0.1261153221130371 0.527188777923584">
                <path d="M943.06111 1105.77645L7.86987592 565.400948c-11.47735073-6.630654-10.0266665-18.320127 3.22374268-25.976609L932.761666 6.86250062c13.246276-7.65234487 33.477328-8.4920346 44.954679-1.86551759L1912.90758 545.376623c11.47735 6.630653 10.02253 18.320127-3.22788 25.976608L988.015789 1103.91507c-13.250409 7.65648-33.481461 8.49617-44.954679 1.86138"
                      id="Fill-1"></path>
            </g>
            <g id="linear-elements" transform="translate(487 824)">
                <path d="M373.727196 146.646156c1.70852-3.249245 5.022137-4.249648 8.885955-2.021476l283.076395 163.31796c5.593021 3.224442 10.122873 11.876693 10.122873 19.330114 0 7.445152-4.529852 10.872155-10.122873 7.647713L393.819878 178.067925v710.009611c0 8.023899-4.88562 11.719605-10.913011 8.238862l-1.725066-.992136c-6.027391-3.480744-10.913012-12.80682-10.913012-20.834853V155.248801c0-4.183506 1.336203-7.172316 3.458407-8.602645"
                      id="linear-third" fill="#D0CEC7" style="opacity: 1; visibility: inherit;"></path>
                <path d="M212.15837 485.088494l-1.725067-.99627c-6.027391-3.476609-10.913011-12.802686-10.913011-20.834852V21.9140119c0-8.0280325 4.88562-11.7196046 10.913011-8.2429952l1.725067.9962697c6.02739 3.4766093 10.913011 12.8026862 10.913011 20.8348526v441.34336c0 8.028032-4.885621 11.719605-10.913011 8.242995"
                      id="linear-first" fill="#D0CEC7"
                      style="opacity: 1; visibility: inherit; transform-origin: 0px 0px;"
                      data-svg-origin="211.29583740234375 12.362788200378418" transform="matrix(1,0,0,1,0,0)"></path>
                <path d="M600.041868 283.556768c0-7.445153-4.533988-10.872155-10.12701-7.647714L321.011312 431.054296c-5.588884 3.224442-10.122872 11.876693-10.122872 19.325979 0 7.449287 4.533988 10.87629 10.122872 7.647714l268.903546-155.141108c5.593022-3.224441 10.12701-11.876692 10.12701-19.330113"
                      id="linear-second" fill="#464763" style="opacity: 1; visibility: inherit;"></path>
            </g>
            <g id="ground" transform="matrix(1,0,0,1,0,1255)"
               style="opacity: 1; visibility: inherit; transform-origin: 0px 0px;"
               data-svg-origin="0.00037670135498046875 0.7279987335205078">
                <path d="M9.11810086 544.015804c-6.9843412 8.145204-7.56740344 15.707723-7.56740344 15.707723l-.57892703 65.157505L152.133755 598.308903 46.5705451 539.358449s-29.9139872-4.128391-37.45244424 4.657355"
                      id="Fill-8" fill="#DAD6D0"></path>
                <path d="M948.543006 1174.52324L12.8563155 634.650318c-11.48343138-6.620303-10.03197859-18.298816 3.2254506-25.95225L938.238105 76.6397466c13.253294-7.6493017 33.495065-8.4882041 44.978496-1.8637683L1918.90329 614.648902c11.48343 6.620304 10.02785 18.298816-3.22958 25.948118l-922.152208 532.06245c-13.257429 7.65344-33.499199 8.48821-44.978496 1.86377"
                      id="Fill-10" fill="#D2D0CC"></path>
                <path id="Fill-11" fill="#CEC9BF"
                      d="M1852.40939 634.96439l74.51204-6.202918v-72.410084l-102.45768 1.549696 27.94564 77.063306"></path>
                <path d="M960.940315 70.395503c-8.055356.4008548-16.28439 2.4960444-22.82213 6.2607737L11.0326953 610.264295c-13.32772749 7.674096-14.78745066 19.385669-3.24612663 26.030768L948.476843 1177.73421c3.481833 2.00841 7.81138 3.24817 12.463472 3.90524V70.395503"
                      id="Fill-12" fill="#DEDAD9"></path>
                <path fill="#F8F8F8"
                      d="M948.543006 1104.94394L12.8563155 565.075146c-11.48343138-6.624436-10.03197859-18.302949 3.2254506-25.952251L938.238105 7.06044149c13.253294-7.64930177 33.495065-8.48820412 44.978496-1.86376829L1918.90329 545.069597c11.48343 6.620304 10.02785 18.298816-3.22958 25.948118L993.521502 1103.08017c-13.257429 7.65343-33.499199 8.49234-44.978496 1.86377"
                      id="Fill-13"></path>
            </g>
            <g id="shadows" transform="translate(594 1394)" fill="#DEDAD9">
                <path d="M533.649695 126.025403l-74.007661-42.2742915c-15.514401-8.8630981-15.514401-31.2212442 0-40.0802103l69.372362-39.62982433c9.431863-5.38810249 21.013909-5.38810249 30.449906 0l70.24484 40.12979403c15.514401 8.858966 15.514401 31.2129802 0 40.0802102l-73.131048 41.7743219c-7.103875 4.057605-15.828658 4.057605-22.928399 0"
                      id="violet-brick-shadow" style="opacity: 1; visibility: inherit;"></path>
                <path d="M91.5843775 218.209887l-79.1391569-45.21213c-16.59362747-9.474631-16.59362747-33.38227 0-42.861033l74.1854649-42.3775915c10.0893225-5.7599807 22.4735525-5.7599807 32.5628745 0l75.119968 42.9106165c16.589493 9.478763 16.589493 33.386402 0 42.861033l-78.208789 44.679105c-7.595937 4.338579-16.9244249 4.338579-24.5203615 0"
                      id="green-brick-shadow" style="opacity: 1; visibility: inherit;"></path>
                <path d="M1057.15735 413.338531L752.282005 237.448388c-14.025812-8.090418-15.328327-17.027892-2.898612-19.858298 12.433849-2.830407 34.076273 1.475117 48.102085 9.565534l304.875342 175.890144c14.02168 8.090417 15.32419 17.023759 2.89448 19.858298-12.42972 2.830406-34.07628-1.475117-48.09795-9.565535"
                      id="list-shadow" style="opacity: 1; visibility: inherit;"></path>
            </g>
            <g id="green-brick" transform="translate(597 1160)" style="opacity: 1; visibility: inherit;">
                <path d="M107.775874 118.417206L.15672891 56.9043453 93.4063073 3.60639562c8.4097437-4.80852749 18.7703497-4.80852749 27.1842177 0l94.029098 53.74333648-106.843749 61.0674739"
                      id="Fill-18" fill="#FFFFFE"></path>
                <path d="M106.6499 117.683143L0 56.7270154V163.327039c0 5.352889 1.65390247 10.450093 4.52864068 14.771994 2.28906701 3.439376 5.33290746 6.404497 9.06140582 8.532456l14.8562511 8.491216 67.5707834 37.292894c3.6253872 2.000116 7.597228 3.035228 11.602064 3.270293V118.239877l-.969245-.556734"
                      id="Fill-19" fill="#02D463"></path>
                <path d="M109.384407 118.693511l-.701155.400023v116.678961c5.023574.103099 10.059521-1.125838 14.518046-3.761043l87.838307-51.965914c.915627-1.237185 1.695147-2.560974 2.383929-3.93425 1.835378-3.657945 2.882987-7.711789 2.882987-11.934715V57.5806733L109.384407 118.693511"
                      id="Fill-20" fill="#D1CCC6"></path>
            </g>
            <g id="violet-brick" transform="translate(1052 1006)" style="opacity: 1; visibility: inherit;">
                <path d="M94.8978082 105.390313L.13634149 50.6445683 82.242839 3.21231262c7.4078876-4.28308349 16.5303727-4.28308349 23.93826 0l82.792337 47.82914378-94.0756278 54.3488566"
                      id="Fill-21" fill="#FFFFFE"></path>
                <path d="M93.9062337 104.741236L0 50.4874668v94.8727802c0 4.762656 1.45430922 9.302063 3.98695567 13.146916 2.01620142 3.06348 4.69758405 5.696997 7.98217443 7.594618l13.0805199 7.55741 59.4985996 33.189763c3.1895646 1.781862 6.6848646 2.7038 10.2132171 2.910512V105.233212l-.855233-.491976"
                      id="Fill-22" fill="#D1CCC6"></path>
                <path d="M96.3149333 105.638368l-.6156024.355546v103.839969c4.4207691.095088 8.8539341-.996355 12.7830471-3.344609l77.338677-46.24986c.805655-1.103845 1.495625-2.277972 2.102965-3.50171 1.611308-3.253655 2.536778-6.862856 2.536778-10.620889V51.2481689L96.3149333 105.638368"
                      id="Fill-23" fill="#464763"></path>
            </g>
            <g id="list-right" transform="translate(1380 1104)">
                <path d="M338.98529 247.237241L23.0565161 64.391189C10.3762581 57.0482068 0 37.1757956 0 20.225676 0 3.27555644 10.3762581-4.5889679 23.0565161 2.74987508L338.98529 185.604205c12.680258 7.338843 23.056516 27.211254 23.056516 44.161374 0 16.95012-10.376258 24.814644-23.056516 17.471662"
                      id="list-1" fill="#8DECB4" data-svg-origin="0 0.0000019073486328125"
                      transform="matrix(1,0,0,1,0,0)"
                      style="transform-origin: 0px 0px; opacity: 1; visibility: inherit;"></path>
                <path d="M215.250581 305.765859L22.5858065 194.255182C10.1656774 187.065351 0 167.598584 0 150.996159s10.1656774-24.30552 22.5858065-17.115689L215.250581 245.391147c12.424258 7.189831 22.585806 26.656598 22.585806 43.259023 0 16.606564-10.161548 24.30552-22.585806 17.115689"
                      id="list-2" fill="#464763" data-svg-origin="0 131.18609619140625" transform="matrix(1,0,0,1,0,0)"
                      style="transform-origin: 0px 0px; opacity: 1; visibility: inherit;"></path>
                <path d="M366.860387 388.136403c-2.266839 0-4.773161-.774035-7.432258-2.309687l-74.776774-43.279719c-11.445678-6.626896-21.12-25.274097-21.12-40.721679 0-7.657563 2.320516-13.394527 6.371097-15.733188 1.325419-.769895 2.799483-1.150704 4.39329-1.150704 2.266839 0 4.773161.774035 7.428129 2.309687l74.780903 43.279719c11.445678 6.622757 21.12 25.269958 21.12 40.71754 0 7.661702-2.324645 13.394527-6.371097 15.741466-1.325419.765756-2.799483 1.146565-4.39329 1.146565"
                      id="list-3" fill="#FCFDFB" data-svg-origin="263.5313720703125 284.9414367675781"
                      transform="matrix(1,0,0,1,0,0)"
                      style="transform-origin: 0px 0px; opacity: 1; visibility: inherit;"></path>
                <path d="M74.6405161 355.796651l-51.5716129-29.8438C10.3845161 318.609869 0 298.72504 0 281.770781c0-16.958398 10.3845161-24.827062 23.0689032-17.484079l51.5716129 29.847939c12.6885162 7.342982 23.0689033 27.227811 23.0689033 44.186209 0 16.954259-10.3803871 24.822923-23.0689033 17.475801"
                      id="list-4" fill="#02D463" data-svg-origin="0 261.53521728515625" transform="matrix(1,0,0,1,0,0)"
                      style="transform-origin: 0px 0px; opacity: 1; visibility: inherit;"></path>
                <path d="M318.088258 496.699953L144.995097 396.51833c-12.684387-7.342982-23.064774-27.223672-23.064774-44.17793 0-16.958398 10.380387-24.827062 23.064774-17.48408l173.093161 100.181623c12.688516 7.342982 23.068903 27.223672 23.068903 44.18207 0 16.958398-10.380387 24.827061-23.068903 17.47994"
                      id="list-5" fill="#FFFFFE" data-svg-origin="121.93032836914062 332.1048583984375"
                      transform="matrix(1,0,0,1,0,0)"
                      style="transform-origin: 0px 0px; opacity: 1; visibility: inherit;"></path>
                <path d="M366.88929 393.997543c-3.303225 0-6.833548-1.034806-10.384516-3.092h-.004129l-74.776774-43.279719c-13.258323-7.678259-24.043355-28.221224-24.043355-45.800506 0-9.809959 3.385807-17.397156 9.298581-20.816154 2.225548-1.287299 4.686451-1.928878 7.287742-1.928878 3.303226 0 6.833548 1.034806 10.384516 3.092l74.776774 43.279719c13.262452 7.67412 24.047484 28.217085 24.047484 45.796367 0 9.809959-3.385807 17.401295-9.294452 20.820293-2.225548 1.287299-4.69058 1.928878-7.291871 1.928878m-92.593548-109.056117c-1.593807 0-3.067871.380809-4.39329 1.150704-4.050581 2.338661-6.371097 8.075625-6.371097 15.733188 0 15.447582 9.674322 34.094783 21.12 40.721679l74.776774 43.279719c2.659097 1.535652 5.165419 2.309687 7.432258 2.309687 1.593807 0 3.067871-.380809 4.39329-1.146565 4.046452-2.346939 6.371097-8.079764 6.371097-15.741466 0-15.447582-9.674322-34.094783-21.12-40.71754l-74.780903-43.279719c-2.654968-1.535652-5.16129-2.309687-7.428129-2.309687"
                      id="list-6" fill="#7B9684" data-svg-origin="257.6805114746094 279.08026123046875"
                      transform="matrix(1,0,0,1,0,0)"
                      style="transform-origin: 0px 0px; opacity: 1; visibility: inherit;"></path>
            </g>
            <g id="scale-elements" transform="matrix(1,0,0,1,1081,0)"
               style="opacity: 1; visibility: inherit; transform-origin: 0px 0px;"
               data-svg-origin="0.01771916262805462 0.43688440322875977">
                <path d="M18.7758105 66.9241008c-1.6207124 0-2.9313394-1.309395-2.9313394-2.9285837V54.259732c0-12.0034754 6.3340083-19.7607111 16.1409717-19.7607111 3.8615951 0 7.9505862 1.2267833 12.1429389 3.6473051l3.2331557 1.8628932c1.4015854.8095943 1.881184 2.598137 1.0708278 3.9984047-.8062217 1.4043984-2.6047162 1.8794155-3.9980327 1.0739517l-3.2331557-1.8628931c-3.2496935-1.8752849-6.4332356-2.8666249-9.215734-2.8666249-6.4373701 0-10.2824274 5.2004045-10.2824274 13.9076744v9.7357851c0 1.6191887-1.3106271 2.9285837-2.9272049 2.9285837zM128.223506 92.9632987c-.496137 0-1.000542-.1280481-1.463603-.3924054L84.4311973 68.1550146c-1.4015854-.8095943-1.881184-2.5981369-1.0708278-4.0025353.8103561-1.4002678 2.6047162-1.8794155 4.0021671-1.0698211l42.3287064 24.4158786c1.401585.8095944 1.881184 2.6022676 1.070827 3.9984048-.541615.941773-1.525619 1.4663571-2.538564 1.4663571zm82.329705 47.4893173c-.496137 0-1.000542-.128048-1.463603-.396536l-42.328706-24.415878c-1.401585-.809595-1.881184-2.598137-1.070827-3.998405.810356-1.396137 2.604716-1.879416 4.002167-1.069821l42.328706 24.415878c1.401585.809595 1.881184 2.598137 1.074962 3.998405-.54575.937643-1.529754 1.466357-2.542699 1.466357zm-191.7774005 21.45012c-1.6207124 0-2.9313394-1.309395-2.9313394-2.928584v-48.831757c0-1.619189 1.310627-2.928583 2.9313394-2.928583 1.6165778 0 2.9272049 1.309394 2.9272049 2.928583v48.831757c0 1.619189-1.3106271 2.928584-2.9272049 2.928584zm274.1071055 26.039198c-.496137 0-1.000542-.128048-1.463603-.396536l-42.328705-24.415879c-1.401586-.809594-1.881184-2.598137-1.070828-3.998404.81449-1.400268 2.604716-1.875285 4.002167-1.069822l42.328706 24.415879c1.401585.809594 1.881184 2.598137 1.074962 3.998405-.54575.937642-1.529754 1.466357-2.542699 1.466357zm82.329705 47.485187c-.496136 0-1.000542-.123917-1.463602-.392405l-42.328706-24.415879c-1.401586-.809594-1.881184-2.598137-1.070828-3.998405.810356-1.404398 2.600582-1.879415 4.002167-1.073951l42.328706 24.420009c1.401585.805464 1.885318 2.598137 1.074962 3.998405-.54575.937642-1.529754 1.462226-2.542699 1.462226zm-356.4368105 21.45012c-1.6207124 0-2.9313394-1.309395-2.9313394-2.924453V205.1169c0-1.615058 1.310627-2.924453 2.9313394-2.924453 1.6165778 0 2.9272049 1.309395 2.9272049 2.924453v48.835888c0 1.615058-1.3106271 2.924453-2.9272049 2.924453zm438.7665155 26.039198c-.500271 0-1.000542-.128048-1.463602-.392406l-42.328706-24.420009c-1.401586-.805464-1.881184-2.598137-1.074962-3.998405.81449-1.400267 2.604716-1.879415 4.006301-1.069821l42.328706 24.415879c1.401585.809594 1.881184 2.598137 1.070828 3.998405-.541616.937642-1.52562 1.466357-2.538565 1.466357zm82.329705 47.489317c-.496136 0-1.000542-.128048-1.463602-.392405l-42.328706-24.415879c-1.401586-.809594-1.881184-2.602267-1.070828-4.002535.806222-1.400268 2.604716-1.871154 4.002167-1.069821l42.328706 24.415879c1.401586.809594 1.881184 2.598136 1.070828 3.998404-.541616.937643-1.52562 1.466357-2.538565 1.466357zm-521.0962205 21.44599c-1.6207124 0-2.9313394-1.309395-2.9313394-2.924454v-48.831757c0-1.619189 1.310627-2.928583 2.9313394-2.928583 1.6165778 0 2.9272049 1.309394 2.9272049 2.928583v48.831757c0 1.615059-1.3106271 2.924454-2.9272049 2.924454zm603.5086155 26.105287c-.475464 0-.959197-.123918-1.40572-.380014l-.128169-.07022-42.341109-24.42414c-1.401585-.809594-1.881184-2.598137-1.070828-3.998404.810356-1.404399 2.600582-1.879416 4.002167-1.069821l42.328706 24.415878c1.401586.805464 1.943201 2.627051 1.141114 4.027319-.549884.954165-1.521485 1.499402-2.526161 1.499402zM18.7758105 446.830381c-1.6207124 0-2.9313394-1.309395-2.9313394-2.928584V395.07004c0-1.615058 1.310627-2.924453 2.9313394-2.924453 1.6165778 0 2.9272049 1.309395 2.9272049 2.924453v48.831757c0 1.619189-1.3106271 2.928584-2.9272049 2.928584zM646.098974 464.73646c-1.620712 0-2.931339-1.309395-2.931339-2.924453v-45.704906c0-.937642-.045479-1.891807-.136438-2.858363-.148841-1.610928 1.037752-3.031849 2.650196-3.18055 1.583502-.123917 3.038835 1.032646 3.183542 2.647704.107496 1.144172.161244 2.275952.161244 3.391209v45.704906c0 1.615058-1.310627 2.924453-2.927205 2.924453zM18.9246514 541.804886c-1.4925438 0-2.7659606-1.135911-2.910667-2.651835-.1116307-1.173086-.1695133-2.329649-.1695133-3.473821v-45.630555c0-1.619188 1.310627-2.928583 2.9313394-2.928583 1.6165778 0 2.9272049 1.309395 2.9272049 2.928583v45.630555c0 .962426.0496136 1.933113.1447064 2.920323.1529754 1.606797-1.0294831 3.040109-2.637792 3.192941l-.2852784.012392zm627.1743226 17.910209c-1.620712 0-2.931339-1.309395-2.931339-2.924453v-48.835888c0-1.615058 1.310627-2.924453 2.931339-2.924453 1.616578 0 2.927205 1.309395 2.927205 2.924453v48.835888c0 1.615058-1.310627 2.924453-2.927205 2.924453zM84.9314682 604.131259c-.5002709 0-1.0046763-.128048-1.4636025-.392406l-42.2708233-24.382834 2.910667-5.080617-1.5049472 2.511395 1.5132161-2.507265 42.2832268 24.386965c1.3974509.809594 1.8811839 2.598137 1.0708278 3.998405-.5457501.941773-1.529754 1.466357-2.5385647 1.466357zm82.3297048 47.489318c-.500271 0-1.004676-.128049-1.463602-.396536l-42.332841-24.415879c-1.401585-.809594-1.881184-2.598137-1.070827-3.998405.810356-1.400268 2.604716-1.879415 4.002167-1.069821l42.33284 24.415879c1.397451.809594 1.881184 2.598137 1.070828 3.998404-.541616.937643-1.529754 1.466358-2.538565 1.466358zm478.837801 3.073154c-1.620712 0-2.931339-1.309395-2.931339-2.928584V602.93339c0-1.619189 1.310627-2.928584 2.931339-2.928584 1.616578 0 2.927205 1.309395 2.927205 2.928584v48.831757c0 1.619189-1.310627 2.928584-2.927205 2.928584zm-396.51223 44.416163c-.496136 0-1.000542-.128048-1.463603-.396536l-42.328705-24.415878c-1.401586-.809595-1.881184-2.598137-1.070828-3.998405.806221-1.396137 2.600582-1.879416 4.002167-1.069821l42.328706 24.415878c1.401585.809595 1.881184 2.598137 1.070828 3.998405-.541616.937642-1.52562 1.466357-2.538565 1.466357zm82.329705 47.485187c-.496136 0-1.000542-.128048-1.463602-.392405l-42.328706-24.415879c-1.401586-.809594-1.881184-2.602267-1.070828-3.998405.810356-1.400267 2.600582-1.879415 4.002167-1.073951l42.328706 24.415878c1.401585.809595 1.881184 2.598137 1.074962 4.002536-.54575.937642-1.529754 1.462226-2.542699 1.462226zm314.182525 3.073154c-1.620712 0-2.931339-1.309395-2.931339-2.928583v-48.827627c0-1.619189 1.310627-2.928584 2.931339-2.928584 1.616578 0 2.927205 1.309395 2.927205 2.928584v48.827627c0 1.619188-1.310627 2.928583-2.927205 2.928583zm-231.85282 44.416164c-.496136 0-1.000542-.128048-1.463602-.392406l-42.328706-24.420009c-1.401586-.805464-1.881184-2.598137-1.070828-3.998405.810356-1.400267 2.604716-1.875284 4.002167-1.069821l42.328706 24.415879c1.401586.809594 1.881184 2.598137 1.074962 3.998405-.54575.937642-1.529754 1.466357-2.542699 1.466357zm82.329705 47.489318c-.496136 0-1.000541-.128049-1.463602-.392406l-42.328706-24.415879c-1.401585-.809594-1.881184-2.598136-1.070828-4.002535.810356-1.400268 2.604716-1.879415 4.002167-1.069821l42.328706 24.415879c1.401586.809594 1.885319 2.598137 1.074962 3.998404-.54575.937643-1.529753 1.466358-2.542699 1.466358zm149.523115 3.073154c-1.620712 0-2.931339-1.309395-2.931339-2.928584V792.88653c0-1.619189 1.310627-2.928584 2.931339-2.928584 1.616578 0 2.927205 1.309395 2.927205 2.928584v48.831757c0 1.619189-1.310627 2.928584-2.927205 2.928584zm-67.189275 44.412033c-.500271 0-1.004676-.123918-1.463603-.392406l-42.33284-24.415878c-1.401585-.809595-1.881184-2.598137-1.070828-3.998405.814491-1.404399 2.604717-1.879416 4.002167-1.069821l42.332841 24.415878c1.397451.805464 1.881184 2.598137 1.070828 3.998405-.54575.937643-1.529754 1.462227-2.538565 1.462227zm53.971374 28.228407c-3.861595 0-7.946452-1.226784-12.142939-3.647305l-3.295173-1.900069c-1.401585-.809594-1.881184-2.598137-1.070828-3.998405.810357-1.400267 2.600582-1.879415 4.002168-1.069821l3.295172 1.900069c3.245559 1.871154 6.433236 2.862494 9.2116 2.862494 6.441504 0 10.286562-5.200405 10.286562-13.911805v-9.661435c0-1.615058 1.310627-2.924453 2.931339-2.924453 1.616578 0 2.927205 1.309395 2.927205 2.924453v9.661435c0 12.007606-6.338143 19.764842-16.145106 19.764842z"
                      id="Fill-30" fill="#3F4153"></path>
                <path d="M42.3753664 79.4149851L8.79106493 60.0384182C3.94546585 57.2461438.01771916 49.7532655.01771916 43.3012942V8.11285396c0-6.45197131 3.92774669-9.41773021 8.77334577-6.62545582L42.3753664 20.8598344c4.8414646 2.796405 8.7692113 10.2892833 8.7692113 16.7412546v35.1884402c0 6.4519714-3.9277467 9.4177303-8.7692113 6.6254559"
                      id="Fill-32" fill="#02D463"></path>
                <path d="M655.864593 428.655814l-33.584302-19.372437c-4.845599-2.792274-8.769211-10.289283-8.769211-16.737124v-35.19257c0-6.447841 3.923612-9.4136 8.769211-6.621326l33.584302 19.372437c4.845599 2.796405 8.769211 10.289283 8.769211 16.737124v35.192571c0 6.451971-3.923612 9.413599-8.769211 6.621325"
                      id="Fill-34" fill="#02D463"></path>
                <path d="M655.864593 944.768082l-33.584302-19.372436c-4.845599-2.792274-8.769211-10.289283-8.769211-16.737124v-35.18844c0-6.451972 3.923612-9.41773 8.769211-6.625456l33.584302 19.372436c4.845599 2.792275 8.769211 10.289284 8.769211 16.741255v35.18844c0 6.447841-3.923612 9.41773-8.769211 6.621325"
                      id="Fill-35" fill="#02D463"></path>
                <path d="M42.3753664 600.207205L8.79106493 580.834768C3.94546585 578.042494.01771916 570.545485.01771916 564.093514v-35.18844c0-6.447841 3.92774669-9.417731 8.77334577-6.621326l33.58430147 19.372437c4.8414646 2.792274 8.7692113 10.289283 8.7692113 16.737124v35.18844c0 6.451971-3.9277467 9.41773-8.7692113 6.625456"
                      id="Fill-36" fill="#02D463"></path>
            </g>
            <g id="window-top" transform="matrix(1,0,0,1,911,96)"
               data-svg-origin="-0.0000019073486328125 -4.76837158203125e-7"
               style="transform-origin: 0px 0px; opacity: 1; visibility: inherit;">
                <path d="M0 549.905353c0 16.604923 11.8725864 37.040479 26.3890507 45.404992L666.522442 964.246584c14.512321 8.364513 26.389051 1.61747 26.389051-14.987453V435.350413L0 35.9966352V549.905353"
                      id="Fill-37" fill="#FFFFFE"></path>
                <path d="M666.522442 372.529695L26.3890507 3.59345568C11.8725864-4.77105714 0 1.97184885 0 18.5809087v17.4157265L692.911493 435.350413v-17.415727c0-16.609059-11.87673-37.040478-26.389051-45.404991"
                      id="Fill-38" fill="#DEDAD9"></path>
                <path d="M288.501778 603.62108L89.2578145 488.78484c-12.614364-7.268273-22.932947-26.95094-22.932947-43.73788V212.358789c0-16.78694 10.318583-24.576444 22.932947-17.308171L288.501778 309.886857c12.614364 7.268274 22.932947 26.950941 22.932947 43.737881v232.688171c0 16.791077-10.318583 24.576444-22.932947 17.308171"
                      id="window-inner-1" fill="#DEDAD9" data-svg-origin="66.32486724853516 192.32728576660156"
                      transform="matrix(1,0,0,1,0,0)"
                      style="transform-origin: 0px 0px; opacity: 1; visibility: inherit;"></path>
                <path d="M608.924858 540.982379L369.960567 403.25749c-9.593382-5.526701-17.442135-20.497607-17.442135-33.263624 0-12.766017 7.848753-18.689846 17.442135-13.163145l238.964291 137.729025c9.593382 5.526701 17.437991 20.49347 17.437991 33.263624 0 12.766017-7.844609 18.689846-17.437991 13.159009"
                      id="window-inner-2" fill="#DEDAD9" data-svg-origin="352.5184326171875 354.76007080078125"
                      transform="matrix(1,0,0,1,0,0)"
                      style="transform-origin: 0px 0px; opacity: 1; visibility: inherit;"></path>
                <path d="M515.33241 584.802994l-145.732372-83.988478c-9.394469-5.419146-17.081606-20.079795-17.081606-32.585197s7.687137-18.305128 17.081606-12.89012l145.732372 83.988479c9.398613 5.415008 17.08575 20.079795 17.08575 32.585196 0 12.505402-7.687137 18.305129-17.08575 12.89012"
                      id="window-inner-3" fill="#DEDAD9" data-svg-origin="352.5184326171875 453.3096618652344"
                      transform="matrix(1,0,0,1,0,0)"
                      style="transform-origin: 0px 0px; opacity: 1; visibility: inherit;"></path>
                <path d="M462.392692 653.0139l-92.427981-53.268957c-9.593382-5.530838-17.446279-20.50588-17.446279-33.280171 0-12.770154 7.852897-18.69812 17.446279-13.167282l92.427981 53.268957c9.597526 5.530838 17.450423 20.50588 17.450423 33.280171 0 12.770154-7.852897 18.693983-17.450423 13.167282"
                      id="window-inner-4" fill="#02DA6A" data-svg-origin="352.5184326171875 551.2251586914062"
                      transform="matrix(1,0,0,1,0,0)"
                      style="transform-origin: 0px 0px; opacity: 1; visibility: inherit;"></path>
            </g>
            <g id="arrow-3-dots" transform="translate(750 577)">
                <path d="M307.802953 180.987315L225.380617 78.8301406c-3.498184-4.3342666-10.498686-1.8610877-10.498686 3.7097682v37.2300262L8.85710347.80093528C4.92061304-1.47372751 0 1.3675331 0 5.91272294V16.6408598c0 2.1092328 1.12471155 4.0613071 2.95236782 5.1159234L214.881931 144.133642v47.528045c0 3.457487 2.952368 6.174675 6.400932 5.885173l82.418201-6.964604c4.722134-.397032 7.074932-5.909988 4.101889-9.594941"
                      id="arrow" fill="#444A62" data-svg-origin="0 1.1920928955078125e-7"
                      transform="matrix(1,0,0,1,0,0)"
                      style="transform-origin: 0px 0px; opacity: 1; visibility: inherit;"></path>
                <path d="M421.758562 249.078311c0 19.826788-14.02168 27.804651-31.31412 17.820949-17.296575-9.987837-31.31412-34.157163-31.31412-53.988087 0-19.826788 14.017545-27.804651 31.31412-17.820949 17.29244 9.987837 31.31412 34.157164 31.31412 53.988087"
                      id="dot-1" fill="#444A62" data-svg-origin="359.1303405761719 190.78672790527344"
                      transform="matrix(1,0,0,1,0,0)"
                      style="transform-origin: 0px 0px; opacity: 1; visibility: inherit;"></path>
                <path d="M533.526772 315.502601c0 19.826788-14.017544 27.808786-31.314119 17.820949-17.292441-9.987838-31.31412-34.157164-31.31412-53.988088 0-19.826788 14.021679-27.804651 31.31412-17.820949 17.296575 9.987838 31.314119 34.157164 31.314119 53.988088"
                      id="dot-2" fill="#8EECB8" data-svg-origin="470.8985595703125 257.21099853515625"
                      transform="matrix(1,0,0,1,0,0)"
                      style="transform-origin: 0px 0px; opacity: 1; visibility: inherit;"></path>
                <path d="M645.299118 384.871544c0 19.826788-14.02168 27.804651-31.31412 17.816814-17.296575-9.983702-31.31412-34.153028-31.31412-53.983952 0-19.826788 14.017545-27.804651 31.31412-17.820949 17.29244 9.987837 31.31412 34.157164 31.31412 53.988087"
                      id="dot-3" fill="#02D463" data-svg-origin="582.6708374023438 326.5799560546875"
                      transform="matrix(1,0,0,1,0,0)"
                      style="transform-origin: 0px 0px; opacity: 1; visibility: inherit;"></path>
            </g>
            <g id="phone" transform="matrix(1,0,0,1,579,265)"
               style="opacity: 1; visibility: inherit; transform-origin: 0px 0px;" data-svg-origin="0 0">
                <path d="M42.7459184 529.068551L248.157609 647.908976c4.642165 2.685963 8.441802-.190377 8.441802-6.394166V136.396444c0-6.203789-3.799637-13.475341-8.441802-16.165443L42.7459184 1.39057576c-4.6462955-2.6859633-8.4459327.19037644-8.4459327 6.39416531V512.903107c0 6.203789 3.7996372 13.475342 8.4459327 16.165444"
                      id="Fill-49" fill="#D0CEC5"></path>
                <path id="Fill-50" fill="#D0CEC5"
                      d="M.76818752 25.6387405L37.9798517 0l11.6301938 58.2676074L.76818752 25.6387405"></path>
                <path id="Fill-48" fill="#D0CBC1"
                      d="M256.595281 646.725331l-37.211664 25.634602-11.626064-58.263469 48.837728 32.628867"></path>
                <path d="M8.44593266 552.94424L213.857623 671.788804c4.642166 2.685963 8.441803-.190377 8.441803-6.398304V160.276272c0-6.203789-3.799637-13.47948-8.441803-16.165443L8.44593266 25.2704035C3.79963719 22.5803016 0 25.4607799 0 31.6645688V536.782935c0 6.203789 3.79963719 13.475341 8.44593266 16.161305"
                      id="Fill-51" fill="#FFFFFE"></path>
                <path d="M157.33389 309.163066c0 29.661478-20.935175 41.597253-46.756188 26.656841-25.8210125-14.936274-46.7561874-51.095382-46.7561874-80.760998 0-29.661478 20.9351749-41.597253 46.7561874-26.656841 25.821013 14.940412 46.756188 51.09952 46.756188 80.760998"
                      id="power" fill="#02D463" style="fill: rgb(2, 139, 62);"></path>
                <path d="M150.849726 462.490598l-93.9212488-54.33592c-7.4795032-4.324856-13.5960931-16.041285-13.5960931-26.036048v-6.667314c0-9.990625 6.1165899-14.625877 13.5960931-10.301021l93.9212488 54.340058c7.475374 4.324856 13.596093 16.041285 13.596093 26.03191v6.671452c0 9.990625-6.120719 14.625877-13.596093 10.296883"
                      id="Fill-55" fill="#D0CEC5"></path>
                <path d="M172.098784 208.809849l-66.307799-38.360853c-5.282321-3.054301-9.6023436-11.327399-9.6023436-18.379604v-4.709748c0-7.056344 4.3200226-10.325853 9.6023436-7.275691l66.307799 38.36913c5.278192 3.050162 9.602344 11.32326 9.602344 18.375466v4.709747c0 7.056345-4.324152 10.325853-9.602344 7.271553"
                      id="Fill-56" fill="#D0CEC5"></path>
                <path d="M124.60332 503.148384l-41.432566-23.970877c-5.212111-3.017053-9.4784428-11.186686-9.4784428-18.15198v-16.591721c0-6.965295 4.2663318-10.197556 9.4784428-7.180503l41.432566 23.970877c5.216241 3.012915 9.482572 11.182547 9.482572 18.147842v16.595859c0 6.965295-4.266331 10.197556-9.482572 7.180503"
                      id="Fill-57" fill="#464763"></path>
                <path d="M64.0899673 161.2116c-3.5229245 0-7.3638621-1.146398-11.2956606-3.418499-13.083968-7.573672-23.3347284-25.286958-23.3347284-40.326697 0-7.768187 2.7753872-13.653302 7.8099065-16.566889 2.151751-1.2457244 4.5678247-1.8665171 7.15736-1.8665171 3.5229245 0 7.3638621 1.1463971 11.2956606 3.4226371 13.0880981 7.569533 23.3388584 25.28282 23.3388584 40.322559 0 7.768186-2.7753872 13.653301-7.8140365 16.571027-2.151751 1.245724-4.5678247 1.862379-7.15736 1.862379M44.447495 104.905697c-1.5776754 0-3.0107994.355921-4.2498116 1.071902-3.1512208 1.825131-4.8858378 5.905809-4.8858378 11.488805 0 12.924905 9.1562996 28.734427 20.4106598 35.244474 3.0190595 1.746496 5.8646574 2.628022 8.3509417 2.628022 1.5776754 0 3.0107995-.351782 4.2456816-1.071902 3.1512208-1.820992 4.8899678-5.90167 4.8899678-11.488804 0-12.920767-9.1604296-28.734427-20.4147898-35.244474-3.0149295-1.746497-5.8605273-2.628023-8.3468117-2.628023"
                      id="Fill-54" fill="#7B9684"></path>
            </g>
            <g id="cursor" transform="matrix(1,0,0,1,311.8703,500.3782)" fill="#444A63" fill-rule="nonzero"
               style="opacity: 1; visibility: inherit; transform-origin: 0px 0px;"
               data-svg-origin="0.6568028330802917 0.21653300523757935">
                <path d="M122.452706 102.441015L72.8664784 52.6175048l40.6584296-17.5076935c.81143-.3473254 1.312364-1.1750828 1.250265-2.0589947-.06003-.8839118-.674812-1.6305573-1.525571-1.8614143L5.61095213 2.07230691c-.71621101-.1955005-1.48003143.01247876-2.00373486.53866627-.52370343.52618751-.72863086 1.29363095-.53612328 2.01115937L32.0507305 112.771344c.2297671.856875.9728878 1.472493 1.8526267 1.534887.9045787.049915 1.7035886-.440916 2.0492743-1.256195l17.4250414-40.8533644 49.5882981 49.8235094c.403645.40556.933558.60938 1.463472.60938.529913 0 1.059826-.20382 1.463471-.60938l16.559792-16.63834c.80936-.813199.80936-2.127628 0-2.940826z"
                      id="cursor-path" transform="rotate(92 63.029863 62.31478)"></path>
            </g>
            <g id="logo" transform="matrix(1,0,0,1,223,925)" fill="#02D463" data-svg-origin="0 -0.0000019073486328125"
               style="transform-origin: 0px 0px; opacity: 1; visibility: inherit;">
                <path d="M43.3053821 912.7282C19.3728071 898.914588 0 865.534449 0 838.109879V30.5677618C0 10.4925301 10.5429117-1.50959644 26.7338118.153c16.1784869 1.6791397 34.7940911 16.6383719 47.1907016 37.9791621L331.985862 482.715414c16.915001 29.145068 16.915001 60.568968.016551 70.20541-16.927415 9.611627-44.34395-6.21199-61.258951-35.352922L86.6024888 200.346982v687.74005c0 27.42457-19.389358 38.438237-43.2971067 24.641168"
                      id="Fill-59"></path>
                <path d="M748.112269 1319.4605c-11.279426-6.50977-22.356104-17.92461-30.643958-32.21384L459.415238 842.638594c-16.910863-29.132661-16.910863-60.540017 0-70.164052 16.89845-9.62817 44.331537 6.199582 61.234125 35.332242l184.136835 317.225056V437.29179c0-27.416298 19.376945-38.446508 43.30952-24.632896 23.924299 13.801205 43.297107 47.193751 43.297107 74.610049v807.542117c0 20.06282-10.555325 32.08977-26.721399 30.43131-5.362486-.56661-10.993923-2.57248-16.559157-5.78187"
                      id="Fill-60"></path>
            </g>
        </g>
    </g>
</svg>