<svg xmlns="http://www.w3.org/2000/svg" viewBox="0 0 384 480"><defs><style>.cls-1{fill:none;}.cls-2{fill:#ffd82b;}</style></defs><title>Mark Inverted</title><g id="Warstwa_2" data-name="Warstwa 2"><g id="Mark_Inverted" data-name="Mark Inverted"><g id="Mark_Inverted-2" data-name="Mark Inverted"><rect id="Mask" class="cls-1" width="384" height="480"/><path id="Shading" class="cls-2" d="M350,264c-3.46,5.54-7.43,10.31-15.17,12.26,4.4-21.65,8.38-44,11.52-64.62A49.25,49.25,0,0,1,358,218C367.51,225.39,356.47,253.65,350,264ZM58.5,160.88l-.15,2.25C79,159.36,109.48,154.9,130.93,153c9.54-54.64,27.49-103.32,55.59-135.9-19.06,2.24-46.61,8.9-71.89,27.74C80.81,70,61.93,109.05,58.5,160.88Zm-24.64,77c.77,5.8,2,12.29,4.94,16.38,1.15,1.59,4.21,5.81,16,5.81h.89Q56.79,247,59,233c3-22,5-31,5-31,8,0,8,5,8,14,0,99.87,22.85,118.73,54.25,113.21-5-47.38-5.23-97.95.27-145.62-19.42-.2-52.79.41-60.52.41-12,0-30-14-35.5-10.38-1.66,1.09-4.5,5.3-4.5,12.38,0,6.28,2.5,20.35,4.52,31.66C31.84,225.11,33.1,232.16,33.86,237.89Z"/><path id="Outline" d="M348.31,198.1c3.92-28.36,5.91-52.31,4.69-65.1C349,91,303,0,204,0,147,0,51,32,42.53,159.82a23.31,23.31,0,0,0-10.34-2.59A20,20,0,0,0,24,159c-9,4-14,15-14,27s6,39,8,54,6.64,36.06,36.77,36.08C49.64,431,165.15,480,224,480c68,0,88-40,81-96,8.08-15.76,18.14-52.77,27-94.11,23.22-2.46,31.08-22.11,36-37.89,3.11-10,10-13,10-13s6-12,6-30A284.27,284.27,0,0,0,348.31,198.1ZM58.5,160.88C61.93,109.05,80.81,70,114.63,44.81,149.53,18.81,188.75,16,204,16a126.42,126.42,0,0,1,57.3,13.17,133.65,133.65,0,0,1,40.76,32.09c21.74,25,33.25,54.79,35,73.26,1,10.73-.67,32.56-4.44,60.14-15.71-3.08-31.54-5.09-44.61-5.16a48.68,48.68,0,0,1-21.46-5.08C238.41,170.44,187.44,152,148,152c-18.22,0-62.48,6.17-89.65,11.13ZM254,210l-7,8c-7,8-20,30-20,30-12,6-30.81,4.48-52-3-17-6-17-24-16-36s0-36,29-36c26,0,59,17,66,21S254,210,254,210Zm26.91,138.59c-1.14,15-9.59,25.13-23.91,29.41-6,1,9-21-18-21s-22,21-30,18c-18.39-7.85-23.9-22.2-25.48-31.61a8,8,0,0,1,7.72-9.31c26.11-.69,50.9-3.74,61.76-10.08,6.9,7.59,17.6,13.75,23.58,16.84A8,8,0,0,1,280.91,348.59Zm26.86-25.1c-4.58-7.32-13.24-17.07-27.77-19.49-13.77-2.3-23.85,7.85-24,8h0c-.08-.22-6.15-16-28-16-68,0-156,116-156-80,0-9,0-14-8-14,0,0-2,9-5,31q-2.22,14-3.29,27.08h-.89c-11.81,0-14.87-4.22-16-5.81-3-4.09-4.17-10.58-4.94-16.38s-2-12.78-3.34-20.23C28.5,206.35,26,192.28,26,186c0-7.08,2.84-11.29,4.5-12.38C36,170,54,184,66,184c10,0,62.85-1,73,0,10,1,8,4,7,29s9.06,37.85,24,44c17,7,48,10.95,63,3,17-9,32.88-40.64,35-47,2-6,7-5,7,0v9c0,26,10,34,10,48,0,11.05-5,11.89-10,13-9,2-9,10-9,10,21,4,28.73-4,31-11a50.61,50.61,0,0,0,18.74,7.33C313.1,301.51,310.41,313,307.77,323.49ZM350,264c-5,8-11.06,14.41-28,13-12-1-23-8-23-8,0-13-6.58-21.4-9.29-36.2S284,203,308,204c22,.92,41,7,50,14C367.51,225.39,356.47,253.65,350,264Z"/></g></g></g></svg>